<svg width="130" height="111" viewBox="0 0 130 111" fill="none" xmlns="http://www.w3.org/2000/svg">
<ellipse cx="64.9999" cy="74.195" rx="36.2069" ry="31.3893" fill="#731A2A"/>
<line x1="48.542" y1="73.9072" x2="82.5195" y2="73.9072" stroke="#A9374B" stroke-width="4"/>
<path d="M64.9004 88.4736V55.5506" stroke="#A9374B" stroke-width="4"/>
<path d="M8.1792 39.0391C6.55043 39.0374 4.98702 39.662 3.82965 40.7765C2.67227 41.8911 2.01476 43.4054 2.00037 44.9894C1.99376 45.5384 2.07552 46.0851 2.24268 46.6095L17.9018 100.31C18.6275 102.818 20.1786 105.026 22.3175 106.595C24.4564 108.165 27.0652 109.009 29.7445 109H100.256C102.94 109.002 105.553 108.156 107.7 106.588C109.847 105.021 111.412 102.817 112.159 100.31L127.818 46.6095L128 44.9894C127.986 43.4054 127.328 41.8911 126.171 40.7765C125.013 39.662 123.45 39.0374 121.821 39.0391H8.1792Z" stroke="#731A2A" stroke-width="4" stroke-linejoin="round"/>
<path d="M36.0342 39.705L65.111 2L94.1878 39.705" stroke="#731A2A" stroke-width="4" stroke-linejoin="round"/>
</svg>
