<svg width="640" height="156" viewBox="0 0 640 156" fill="none" xmlns="http://www.w3.org/2000/svg">
<rect width="640" height="156" rx="50" fill="#E0E0E0"/>
<path d="M79.9731 36C88.4443 36 95.338 42.73 95.338 51H105.581C105.581 37.215 94.0935 26 79.9731 26C65.8528 26 54.3649 37.215 54.3649 51V61H49.2433C43.5941 61 39 65.485 39 71V116C39 121.515 43.5941 126 49.2433 126H110.703C116.352 126 120.946 121.515 120.946 116V71C120.946 65.485 116.352 61 110.703 61H64.6082V51C64.6082 42.73 71.5019 36 79.9731 36ZM110.713 116H85.0947V104.61C88.1421 102.875 90.2164 99.685 90.2164 96C90.2164 90.485 85.6223 86 79.9731 86C74.3239 86 69.7298 90.485 69.7298 96C69.7298 99.68 71.8041 102.875 74.8515 104.61V116H49.2433V71H110.703L110.713 116Z" fill="#4F4F4F"/>
</svg>
