<svg width="750" height="750" viewBox="0 0 750 750" fill="none" xmlns="http://www.w3.org/2000/svg">
<path d="M375 750C582.107 750 750 582.107 750 375C750 167.893 582.107 0 375 0C167.893 0 0 167.893 0 375C0 582.107 167.893 750 375 750Z" fill="#333333"/>
<path d="M334 229H664" stroke="#F2994A" stroke-width="22"/>
<path d="M87 495H417" stroke="#F2994A" stroke-width="22"/>
<path d="M260.469 175.922H247.422C241.641 175.922 237.344 173.083 234.531 167.406L225 148.344C223.125 144.698 221.615 142.875 220.469 142.875C219.323 142.875 217.708 143.865 215.625 145.844L208.594 152.562C206.51 154.594 205.469 156.365 205.469 157.875C205.469 159.333 205.911 160.427 206.797 161.156L222.969 168.812C227.448 170.948 229.688 173.969 229.688 177.875C229.688 180.583 227.943 183.604 224.453 186.938L208.438 202.328C205.156 205.453 202.344 207.016 200 207.016C197.188 207.016 194.245 205.479 191.172 202.406L165.469 176.703C162.135 173.37 160.469 171.078 160.469 169.828C160.469 167.641 161.771 165.297 164.375 162.797L179.062 148.578L175.469 154.984C174.531 156.651 173.854 158.057 173.438 159.203C173.021 160.297 172.812 161.13 172.812 161.703C172.812 163.214 174.297 165.453 177.266 168.422L198.438 189.672C201.979 193.214 204.323 194.984 205.469 194.984C206.198 194.984 208.099 193.474 211.172 190.453L215.078 186.703C216.484 185.401 217.188 184.203 217.188 183.109C217.188 180.766 215.911 178.969 213.359 177.719L198.672 170.609C197.266 169.932 196.146 169.333 195.312 168.812C194.479 168.24 193.828 167.641 193.359 167.016C192.943 166.391 192.656 165.714 192.5 164.984C192.396 164.203 192.344 163.266 192.344 162.172C192.344 160.089 194.948 156.521 200.156 151.469L233.828 118.812C233.099 121.26 232.734 123.292 232.734 124.906C232.734 126.833 233.854 130.01 236.094 134.438L247.969 158.188C249.948 162.198 252.891 164.203 256.797 164.203H260.469V175.922ZM247.266 208.188C247.266 209.542 245.911 212.302 243.203 216.469C241.224 213.812 238.62 211.807 235.391 210.453C233.099 209.516 231.953 208.266 231.953 206.703C231.953 205.453 235 202.354 241.094 197.406C241.146 198.344 241.51 199.281 242.188 200.219C242.865 201.208 243.568 202.146 244.297 203.031C245.026 203.969 245.703 204.854 246.328 205.688C246.953 206.573 247.266 207.406 247.266 208.188ZM229.219 208.188C229.219 209.542 227.865 212.302 225.156 216.469C223.177 213.812 220.573 211.807 217.344 210.453C215.052 209.516 213.906 208.266 213.906 206.703C213.906 205.453 216.953 202.354 223.047 197.406C223.099 198.344 223.464 199.281 224.141 200.219C224.818 201.208 225.521 202.146 226.25 203.031C226.979 203.969 227.656 204.854 228.281 205.688C228.906 206.573 229.219 207.406 229.219 208.188ZM293.672 169.047C293.672 170.245 293.594 171.26 293.438 172.094C293.333 172.927 293.073 173.76 292.656 174.594C292.24 175.427 291.589 176.312 290.703 177.25C289.87 178.188 288.75 179.333 287.344 180.688L275.234 192.094C274.922 190.688 274.193 189.047 273.047 187.172C271.953 185.297 270.651 183.526 269.141 181.859C267.682 180.193 266.172 178.786 264.609 177.641C263.047 176.495 261.667 175.922 260.469 175.922H255V164.203H260.234C262.109 164.203 265.365 166.547 270 171.234L278.047 179.516C278.932 178.318 279.375 177.12 279.375 175.922C279.375 174.932 278.516 172.667 276.797 169.125L273.359 162.172C270.703 156.807 269.375 153.214 269.375 151.391C269.375 148.214 270.651 145.193 273.203 142.328L282.891 133.031C282.161 135.479 281.797 137.51 281.797 139.125C281.797 141.052 282.917 144.229 285.156 148.656L290.312 158.969C292.552 163.552 293.672 166.911 293.672 169.047ZM279.375 122.641C279.375 123.995 278.021 126.755 275.312 130.922C273.333 128.266 270.729 126.26 267.5 124.906C265.208 123.969 264.062 122.719 264.062 121.156C264.062 119.906 267.109 116.807 273.203 111.859C273.255 112.797 273.62 113.76 274.297 114.75C274.974 115.688 275.677 116.625 276.406 117.562C277.135 118.448 277.812 119.333 278.438 120.219C279.062 121.052 279.375 121.859 279.375 122.641ZM341.484 162.641C341.484 166.651 339.427 170.688 335.312 174.75L303.203 206.156C298.411 210.844 292.292 213.188 284.844 213.188C282.969 213.188 281.354 212.927 280 212.406C282.76 211.677 285.625 210.479 288.594 208.812C291.562 207.198 294.74 204.75 298.125 201.469L321.562 178.656C325.625 174.698 327.656 171.443 327.656 168.891C327.656 168.318 326.38 165.479 323.828 160.375L320.391 153.422C317.734 148.057 316.406 144.464 316.406 142.641C316.406 139.464 317.682 136.443 320.234 133.578L329.922 124.281C329.193 126.729 328.828 128.76 328.828 130.375C328.828 132.302 329.948 135.479 332.188 139.906L337.344 150.219C340.104 155.844 341.484 159.984 341.484 162.641ZM380.625 175.922H356.797V112.016C356.797 108.682 353.802 101.729 347.812 91.1562C351.354 91.1562 357.083 86.5729 365 77.4062V155.219C365 155.792 365.339 156.599 366.016 157.641C366.693 158.63 367.474 159.62 368.359 160.609C369.245 161.599 370.156 162.458 371.094 163.188C372.031 163.865 372.786 164.203 373.359 164.203H380.625V175.922ZM470.312 175.922H375.156V164.203H445.781L442.578 157.875H386.094C385.104 157.875 384.141 157.693 383.203 157.328C382.318 156.911 381.536 156.365 380.859 155.688C380.182 155.01 379.635 154.203 379.219 153.266C378.854 152.276 378.672 151.182 378.672 149.984C378.672 149.099 381.042 146.365 385.781 141.781L416.875 111.781C421.146 107.667 423.281 103.969 423.281 100.688C423.281 92.7708 419.531 88.8125 412.031 88.8125C410.938 88.8125 409.74 88.9688 408.438 89.2812C407.135 89.5938 405.755 90.0104 404.297 90.5312C402.891 91.0521 401.432 91.651 399.922 92.3281C398.411 92.9531 396.927 93.6042 395.469 94.2812L418.594 71.3125L426.406 86.7812C429.062 92.0417 430.391 96.5729 430.391 100.375C430.391 105.583 427.812 110.635 422.656 115.531L409.531 128.031C406.198 131.208 404.531 133.448 404.531 134.75C404.531 136.625 404.792 137.927 405.312 138.656L406.484 141.625C407.63 144.646 410 146.156 413.594 146.156H449.766C451.12 146.156 452.708 148.109 454.531 152.016L460.156 164.203H470.312V175.922ZM496.172 171.625C493.672 174.49 490.521 175.922 486.719 175.922H464.844V164.203H475.234C475.703 164.203 476.198 164.073 476.719 163.812C477.24 163.5 477.708 163.109 478.125 162.641C478.594 162.172 478.958 161.677 479.219 161.156C479.479 160.583 479.609 160.01 479.609 159.438V112.016C479.609 108.682 476.615 101.729 470.625 91.1562C474.167 91.1562 479.896 86.5729 487.812 77.4062V160.141C487.812 162.224 487.917 163.917 488.125 165.219C488.385 166.521 488.802 167.562 489.375 168.344C490 169.125 490.859 169.75 491.953 170.219C493.047 170.688 494.453 171.156 496.172 171.625Z" fill="#E0E0E0"/>
<path d="M201.023 556.188C201.086 556.062 201.211 556.031 201.398 556.094C202.742 556.531 203.992 557.195 205.148 558.086C205.305 558.211 205.359 558.352 205.312 558.508L203.648 562.141C203.586 562.281 203.422 562.258 203.156 562.07C202.891 561.883 201.648 561.18 199.43 559.961C199.289 559.883 199.242 559.789 199.289 559.68L201.023 556.188ZM213.047 566.898C213.172 566.43 213.422 566.367 213.797 566.711C214.172 567.055 214.781 567.734 215.625 568.75C216.125 569.359 216.836 569.664 217.758 569.664C218.43 569.664 218.867 570.008 219.07 570.695C219.273 571.367 219.297 572.086 219.141 572.852C219 573.602 218.797 573.984 218.531 574H217.055C217.523 577.703 216.984 581.156 215.438 584.359C213.656 588.031 209.93 589.961 204.258 590.148C201.383 590.242 198.922 589.438 196.875 587.734C194.828 586.047 193.664 583.977 193.383 581.523C193.117 579.086 193.75 575.789 195.281 571.633C195.344 571.461 195.469 571.367 195.656 571.352C195.844 571.336 196.008 571.414 196.148 571.586C196.289 571.742 196.312 571.938 196.219 572.172C195.203 575.156 194.844 577.258 195.141 578.477C196.141 582.742 199.07 584.898 203.93 584.945C209.242 584.977 213.008 583.516 215.227 580.562C215.07 576.719 214.195 573.508 212.602 570.93C212.32 570.477 212.195 570.203 212.227 570.109L213.047 566.898ZM223.336 566.242C223.445 565.836 223.617 565.594 223.852 565.516C224.086 565.422 224.32 565.5 224.555 565.75C224.805 566 224.859 566.367 224.719 566.852C224.578 567.32 224.406 567.82 224.203 568.352C228.359 569.945 230.883 568.906 231.773 565.234C231.867 564.828 232.031 564.586 232.266 564.508C232.516 564.414 232.75 564.484 232.969 564.719C233.188 564.938 233.266 565.242 233.203 565.633C233.016 566.711 232.977 567.438 233.086 567.812C233.289 568.531 233.961 569.023 235.102 569.289C236.258 569.539 237.062 569.383 237.516 568.82C237.984 568.242 238.273 566.945 238.383 564.93C238.398 564.664 238.57 564.531 238.898 564.531C239.242 564.531 239.492 564.664 239.648 564.93C241.32 567.883 243.125 569.461 245.062 569.664C245.469 569.711 245.828 570.172 246.141 571.047C246.438 571.828 246.547 572.516 246.469 573.109C246.391 573.703 246.18 574 245.836 574C243.211 574 241.016 572.414 239.25 569.242C239.141 569.023 239.062 569.031 239.016 569.266C238.797 571.203 238.477 572.523 238.055 573.227C237.633 573.93 237.07 574.297 236.367 574.328C234.117 574.422 232.266 573.57 230.812 571.773C229.844 573.258 228.438 574 226.594 574C224.766 574 223.289 573.375 222.164 572.125C221.117 573.375 219.906 574 218.531 574C217.922 574 217.359 572.922 216.844 570.766C216.688 570.109 216.992 569.742 217.758 569.664C220.914 569.414 222.773 568.273 223.336 566.242ZM244.289 563.523C244.367 562.539 244.844 561.539 245.719 560.523C246.578 559.508 247.609 558.992 248.812 558.977C250.016 558.961 252.961 559.867 257.648 561.695C259.367 562.367 261.492 562.938 264.023 563.406C266.57 563.859 269.125 564 271.688 563.828C272.375 563.781 272.641 564.062 272.484 564.672L271.664 567.625C271.555 568 271.234 568.148 270.703 568.07C266.953 567.461 263.562 567.625 260.531 568.562C256.812 569.875 253.875 571.117 251.719 572.289C249.625 573.43 247.672 574 245.859 574C245.656 574 245.461 573.844 245.273 573.531C244.727 572.547 244.492 571.664 244.57 570.883C244.648 570.102 244.82 569.695 245.086 569.664C249.617 569.336 253.656 568.18 257.203 566.195C252.516 563.758 248.508 563.094 245.18 564.203C244.945 564.281 244.734 564.25 244.547 564.109C244.359 563.953 244.273 563.758 244.289 563.523ZM276.586 541.844C276.977 540.266 277.391 540.227 277.828 541.727C277.828 541.727 278.891 545.656 281.016 553.516C284.078 564.109 285.125 570.828 284.156 573.672C284.031 574.031 283.875 574.125 283.688 573.953C283.516 573.766 283.406 573.5 283.359 573.156C282.938 570.469 282.203 567.445 281.156 564.086C281.109 563.945 280.234 560.898 278.531 554.945L275.953 546.25C275.781 545.656 275.758 545.117 275.883 544.633L276.586 541.844ZM279.68 535C278.008 535.344 276.836 535.633 276.164 535.867C275.477 536.086 274.219 536.633 272.391 537.508C272 537.68 271.688 537.625 271.453 537.344C270.953 536.766 271.438 535.969 272.906 534.953C271.609 534.359 270.828 533.688 270.562 532.938C270.078 531.641 270.344 530.07 271.359 528.227C272.375 526.398 273.648 525.547 275.18 525.672C276.164 525.75 276.695 526.297 276.773 527.312C276.852 528.312 276.719 529.141 276.375 529.797C276.016 530.453 275.625 530.523 275.203 530.008C274.781 529.492 274.25 529.203 273.609 529.141C272.969 529.078 272.508 529.258 272.227 529.68C271.93 530.102 272.031 530.516 272.531 530.922C273.766 531.922 275.414 532.453 277.477 532.516C277.805 532.516 278.281 532.438 278.906 532.281C279.531 532.125 279.969 532.055 280.219 532.07C280.484 532.07 280.695 532.172 280.852 532.375C281.008 532.562 281.062 532.742 281.016 532.914C280.625 534.195 280.18 534.891 279.68 535ZM333.492 547.539C333.555 547.414 333.688 547.383 333.891 547.445C335.234 547.883 336.484 548.547 337.641 549.438C337.797 549.562 337.844 549.703 337.781 549.859L336.117 553.492C336.055 553.633 335.891 553.609 335.625 553.422C335.375 553.234 334.133 552.531 331.898 551.312C331.758 551.234 331.719 551.141 331.781 551.031L333.492 547.539ZM337.688 552.531C337.75 552.406 337.875 552.375 338.062 552.438C339.406 552.875 340.656 553.539 341.812 554.43C341.984 554.555 342.039 554.695 341.977 554.852L340.312 558.484C340.25 558.625 340.086 558.602 339.82 558.414C339.602 558.258 338.727 557.758 337.195 556.914L335.977 559.586C335.914 559.727 335.75 559.703 335.484 559.516C335.219 559.328 333.977 558.625 331.758 557.406C331.617 557.328 331.578 557.234 331.641 557.125L333.352 553.633C333.414 553.508 333.547 553.477 333.75 553.539C334.734 553.852 335.664 554.289 336.539 554.852L337.688 552.531ZM346.312 565.234C346.344 564.859 346.5 564.609 346.781 564.484C347.156 564.344 347.57 564.594 348.023 565.234C350.102 568.234 351.992 569.711 353.695 569.664C354.633 569.633 355.141 570.539 355.219 572.383C355.266 573.461 355.016 574 354.469 574C352.094 574 349.836 572.195 347.695 568.586C347.477 568.211 347.336 568.219 347.273 568.609C346.93 571.203 346.625 572.883 346.359 573.648C346.094 574.398 345.586 574.781 344.836 574.797C342.945 574.828 341.086 574.109 339.258 572.641C337.883 574.516 335.75 575.281 332.859 574.938C333.344 578.391 333.305 581.102 332.742 583.07C332.383 584.539 331.656 585.742 330.562 586.68C327.312 589.508 323.5 590.875 319.125 590.781C313.734 590.656 309.945 588.406 307.758 584.031C307.164 582.797 306.883 581.055 306.914 578.805C306.961 576.57 307.523 573.961 308.602 570.977C308.68 570.773 308.812 570.664 309 570.648C309.203 570.633 309.367 570.711 309.492 570.883C309.617 571.039 309.648 571.211 309.586 571.398C308.273 575.117 307.922 577.727 308.531 579.227C310.047 582.93 313.438 585.078 318.703 585.672C320.906 585.922 323.344 585.5 326.016 584.406C328.688 583.328 330.547 581.766 331.594 579.719C331.844 577.188 330.797 574.531 328.453 571.75C328.188 571.406 328.07 571.094 328.102 570.812L328.547 566.828C328.609 566.203 328.836 566.117 329.227 566.57C329.82 567.336 330.375 568.234 330.891 569.266C331.422 570.328 333.172 570.633 336.141 570.18C337.641 569.961 338.68 569.047 339.258 567.438C339.398 567.031 339.516 566.57 339.609 566.055C339.703 565.523 339.859 565.234 340.078 565.188C340.297 565.141 340.508 565.211 340.711 565.398C340.914 565.57 341.008 565.781 340.992 566.031L340.805 567.438C340.773 568.031 341 568.453 341.484 568.703C342.891 569.406 344.211 569.594 345.445 569.266C345.836 569.156 346.125 567.812 346.312 565.234ZM371.273 569.664C372.398 569.664 372.984 570.234 373.031 571.375C373.078 573.078 372.75 573.953 372.047 574C369.141 574.203 365.891 572.562 362.297 569.078C358.906 572.391 356.297 574.031 354.469 574C353.703 573.984 353.102 573.375 352.664 572.172C352.102 570.547 352.445 569.711 353.695 569.664C355.664 569.586 357.445 568.93 359.039 567.695C357.836 566.68 356.266 566.039 354.328 565.773C354.109 565.742 354 565.57 354 565.258C353.984 564.258 354.609 563.117 355.875 561.836C358.234 559.617 361.312 559.547 365.109 561.625C366.906 562.609 367.844 563.57 367.922 564.508C368.016 565.445 367.102 566.594 365.18 567.953C366.508 569.094 368.539 569.664 371.273 569.664ZM373.688 551.359C373.75 551.234 373.875 551.203 374.062 551.266C375.406 551.703 376.656 552.367 377.812 553.258C377.984 553.383 378.039 553.523 377.977 553.68L376.312 557.312C376.25 557.453 376.086 557.43 375.82 557.242C375.586 557.07 374.578 556.5 372.797 555.531L371.508 558.391C371.445 558.531 371.281 558.508 371.016 558.32C370.75 558.133 369.508 557.43 367.289 556.211C367.148 556.133 367.102 556.039 367.148 555.93L368.883 552.438C368.945 552.312 369.07 552.281 369.258 552.344C370.367 552.703 371.422 553.227 372.422 553.914L373.688 551.359ZM373.125 563.852L373.945 560.875C374.117 560.266 374.414 560.258 374.836 560.852C376.508 563.18 377.242 565.992 377.039 569.289C376.82 572.43 375.156 574 372.047 574C371.703 574 371.227 573.188 370.617 571.562C370.133 570.266 370.352 569.633 371.273 569.664C373.18 569.742 374.516 569.234 375.281 568.141C375.312 568.078 375.297 567.969 375.234 567.812C374.891 566.891 374.297 565.961 373.453 565.023C373.109 564.633 373 564.242 373.125 563.852ZM405.727 571L406.57 567.18C406.695 566.648 406.883 566.555 407.133 566.898C407.852 567.867 408.484 568.57 409.031 569.008C409.578 569.445 410.227 569.664 410.977 569.664C411.727 569.68 412.227 570.398 412.477 571.82C412.727 573.227 412.484 573.953 411.75 574C411.219 574.031 410.688 574.031 410.156 574C410.031 574 409.969 574.094 409.969 574.281C410.422 577.391 409.844 580.289 408.234 582.977C406.641 585.68 404.961 587.133 403.195 587.336C401.445 587.539 399.93 587.5 398.648 587.219C397.383 586.938 395.734 586.328 393.703 585.391C393.469 585.281 393.305 585.141 393.211 584.969C393.117 584.797 393.125 584.656 393.234 584.547C393.328 584.453 393.477 584.438 393.68 584.5C395.867 585.016 397.711 585.109 399.211 584.781C402.336 584.094 404.992 582.227 407.18 579.18C408.117 577.898 408.609 576.609 408.656 575.312C408.547 574.5 407.695 573.414 406.102 572.055C405.773 571.789 405.648 571.438 405.727 571ZM410.648 547.773C410.711 547.648 410.844 547.617 411.047 547.68C412.391 548.117 413.641 548.781 414.797 549.672C414.953 549.797 415 549.938 414.938 550.094L413.273 553.727C413.211 553.867 413.047 553.844 412.781 553.656C412.531 553.469 411.289 552.766 409.055 551.547C408.914 551.469 408.875 551.375 408.938 551.266L410.648 547.773ZM414.844 552.766C414.906 552.641 415.031 552.609 415.219 552.672C416.562 553.109 417.812 553.773 418.969 554.664C419.141 554.789 419.195 554.93 419.133 555.086L417.469 558.719C417.406 558.859 417.242 558.836 416.977 558.648C416.758 558.492 415.883 557.992 414.352 557.148L413.133 559.82C413.07 559.961 412.906 559.938 412.641 559.75C412.375 559.562 411.133 558.859 408.914 557.641C408.773 557.562 408.734 557.469 408.797 557.359L410.508 553.867C410.57 553.742 410.703 553.711 410.906 553.773C411.891 554.086 412.82 554.523 413.695 555.086L414.844 552.766ZM422.695 569.664C423.242 569.789 423.57 569.977 423.68 570.227C423.789 570.477 423.859 570.852 423.891 571.352C423.969 573.117 423.828 574 423.469 574C421.75 574.016 419.844 573.047 417.75 571.094C416.641 572.828 414.641 573.797 411.75 574C411.453 574.016 411.211 573.773 411.023 573.273L410.25 571.281C410.109 570.953 410.117 570.609 410.273 570.25C410.414 569.891 410.648 569.695 410.977 569.664C414.492 569.398 416.688 568.352 417.562 566.523C417.688 566.258 417.883 566.125 418.148 566.125C418.414 566.125 418.578 566.273 418.641 566.57C418.719 566.867 418.797 567.062 418.875 567.156C420.156 568.594 421.43 569.43 422.695 569.664ZM422.695 569.664C428.07 570.414 431.984 569.305 434.438 566.336C434.516 566.242 434.531 566.133 434.484 566.008C431.953 562.82 428.117 560.039 422.977 557.664C422.398 557.398 421.938 556.406 421.594 554.688C421.094 552.266 421.281 550.586 422.156 549.648C425.984 545.586 433.594 541.672 444.984 537.906C445.219 537.828 445.406 537.789 445.547 537.789C445.734 537.789 445.844 537.898 445.875 538.117C445.891 538.164 445.891 538.273 445.875 538.445L445.523 541.82C445.477 542.289 445.312 542.57 445.031 542.664C432.141 547.586 424.789 551.148 422.977 553.352C422.867 553.477 422.914 553.586 423.117 553.68C430.555 557.711 434.656 561.734 435.422 565.75C435.828 567.984 435.672 569.75 434.953 571.047C434.219 572.359 433.172 573.188 431.812 573.531C428.625 574.359 425.719 574.539 423.094 574.07C422.656 573.992 422.32 573.578 422.086 572.828C421.852 572.047 421.703 571.484 421.641 571.141C421.453 570.031 421.805 569.539 422.695 569.664ZM454.336 541.844C454.727 540.266 455.141 540.227 455.578 541.727C455.578 541.727 456.641 545.656 458.766 553.516C461.828 564.109 462.875 570.828 461.906 573.672C461.781 574.031 461.625 574.125 461.438 573.953C461.266 573.766 461.156 573.5 461.109 573.156C460.688 570.469 459.953 567.445 458.906 564.086C458.859 563.945 457.984 560.898 456.281 554.945L453.703 546.25C453.531 545.656 453.508 545.117 453.633 544.633L454.336 541.844ZM457.43 535C455.758 535.344 454.586 535.633 453.914 535.867C453.227 536.086 451.969 536.633 450.141 537.508C449.75 537.68 449.438 537.625 449.203 537.344C448.703 536.766 449.188 535.969 450.656 534.953C449.359 534.359 448.578 533.688 448.312 532.938C447.828 531.641 448.094 530.07 449.109 528.227C450.125 526.398 451.398 525.547 452.93 525.672C453.914 525.75 454.445 526.297 454.523 527.312C454.602 528.312 454.469 529.141 454.125 529.797C453.766 530.453 453.375 530.523 452.953 530.008C452.531 529.492 452 529.203 451.359 529.141C450.719 529.078 450.258 529.258 449.977 529.68C449.68 530.102 449.781 530.516 450.281 530.922C451.516 531.922 453.164 532.453 455.227 532.516C455.555 532.516 456.031 532.438 456.656 532.281C457.281 532.125 457.719 532.055 457.969 532.07C458.234 532.07 458.445 532.172 458.602 532.375C458.758 532.562 458.812 532.742 458.766 532.914C458.375 534.195 457.93 534.891 457.43 535ZM502.266 569.664C502.766 569.789 503.156 570.219 503.438 570.953C503.734 571.672 503.844 572.367 503.766 573.039C503.688 573.695 503.445 574.016 503.039 574C500.914 573.875 499.18 572.125 497.836 568.75C497.414 567.688 497.188 567.148 497.156 567.133C497.016 566.883 496.93 566.898 496.898 567.18C496.383 569.883 495.391 571.555 493.922 572.195C492.078 572.992 489.438 573.281 486 573.062C483.312 572.891 482.258 570.781 482.836 566.734C482.898 566.297 483.086 566.047 483.398 565.984C483.727 565.922 483.992 566.133 484.195 566.617C484.617 567.539 485.148 568.07 485.789 568.211C488.961 568.867 491.727 568.695 494.086 567.695C495.242 567.195 495.906 566.312 496.078 565.047C496.109 564.828 495.586 563.102 494.508 559.867C493.445 556.633 492.812 554.664 492.609 553.961C492.406 553.242 492.359 552.695 492.469 552.32C492.797 551.211 493.023 550.398 493.148 549.883C493.195 549.648 493.344 549.547 493.594 549.578C493.844 549.609 494.008 549.766 494.086 550.047C496.055 556.766 497.852 562.117 499.477 566.102C500.32 568.227 501.25 569.414 502.266 569.664ZM530.18 564.766C527.352 562.359 524.078 562.547 520.359 565.328C518.516 566.719 517.195 568.203 516.398 569.781C518.836 569.875 521.656 569.406 524.859 568.375C526.906 567.703 528.719 566.68 530.297 565.305C530.469 565.148 530.43 564.969 530.18 564.766ZM514.219 573.484C513.969 574.906 513.852 575.938 513.867 576.578C513.883 577.234 513.742 577.641 513.445 577.797C513.148 577.953 512.852 577.93 512.555 577.727C511.992 577.336 511.953 575.734 512.438 572.922C511.391 572.625 510.492 572.25 509.742 571.797C509.008 571.328 508.25 570.68 507.469 569.852C506.219 572.461 504.75 573.844 503.062 574C502.688 574.031 502.367 573.766 502.102 573.203C501.523 572.031 501.375 571.039 501.656 570.227C501.797 569.805 502.008 569.617 502.289 569.664C503.805 569.914 505.328 568.852 506.859 566.477C507.047 566.195 507.258 566.102 507.492 566.195C507.727 566.273 508.039 566.492 508.43 566.852C510.164 568.461 512.07 569.344 514.148 569.5C515.508 566.719 517.383 564.227 519.773 562.023C522.18 559.805 524.25 558.484 525.984 558.062C527.203 557.797 528.609 558.109 530.203 559C531.812 559.875 532.859 560.898 533.344 562.07C533.25 564.711 532.719 566.867 531.75 568.539C533.781 569.227 535.516 569.602 536.953 569.664C537.25 569.68 537.5 570.078 537.703 570.859C538.25 572.906 538.258 573.953 537.727 574C535.289 574.25 532.055 573.438 528.023 571.562C523.758 573.906 519.156 574.547 514.219 573.484ZM541.031 552.766C541.094 552.641 541.219 552.609 541.406 552.672C542.75 553.109 544 553.773 545.156 554.664C545.328 554.789 545.383 554.93 545.32 555.086L543.656 558.719C543.594 558.859 543.43 558.836 543.164 558.648C542.93 558.477 541.922 557.906 540.141 556.938L538.852 559.797C538.789 559.938 538.625 559.914 538.359 559.727C538.094 559.539 536.852 558.836 534.633 557.617C534.492 557.539 534.445 557.445 534.492 557.336L536.227 553.844C536.289 553.719 536.414 553.688 536.602 553.75C537.711 554.109 538.766 554.633 539.766 555.32L541.031 552.766ZM548.695 569.664C549.242 569.789 549.57 569.977 549.68 570.227C549.789 570.477 549.859 570.852 549.891 571.352C549.969 573.117 549.828 574 549.469 574C547.75 574.016 545.844 573.047 543.75 571.094C542.641 572.828 540.641 573.797 537.75 574C537.453 574.016 537.211 573.773 537.023 573.273L536.25 571.281C536.109 570.953 536.117 570.609 536.273 570.25C536.414 569.891 536.648 569.695 536.977 569.664C540.492 569.398 542.688 568.352 543.562 566.523C543.688 566.258 543.883 566.125 544.148 566.125C544.414 566.125 544.578 566.273 544.641 566.57C544.719 566.867 544.797 567.062 544.875 567.156C546.156 568.594 547.43 569.43 548.695 569.664ZM551.062 543.156C551.125 543.031 551.25 543 551.438 543.062C552.781 543.5 554.031 544.164 555.188 545.055C555.359 545.18 555.414 545.32 555.352 545.477L553.688 549.109C553.625 549.25 553.461 549.227 553.195 549.039C552.961 548.867 551.953 548.297 550.172 547.328L548.883 550.188C548.82 550.328 548.656 550.305 548.391 550.117C548.125 549.93 546.883 549.227 544.664 548.008C544.523 547.93 544.477 547.836 544.523 547.727L546.258 544.234C546.32 544.109 546.445 544.078 546.633 544.141C547.742 544.5 548.797 545.023 549.797 545.711L551.062 543.156ZM551.531 554.359C551.953 554.359 552.516 554.625 553.219 555.156C556.516 557.672 558.43 560.836 558.961 564.648C559.242 566.664 559.031 568.266 558.328 569.453C556.516 572.484 553.562 574 549.469 574C549.062 574.016 548.703 573.656 548.391 572.922C548.062 572.172 547.922 571.453 547.969 570.766C548.016 570.062 548.258 569.695 548.695 569.664C552.648 569.398 555.461 568.258 557.133 566.242C556.883 565.289 556.617 564.656 556.336 564.344C556.07 564.031 555.867 563.891 555.727 563.922C555.602 563.953 555.523 564.023 555.492 564.133C555.195 565.523 554.508 566.344 553.43 566.594C550.039 567.344 548.195 565.984 547.898 562.516C547.742 560.812 548.062 559.023 548.859 557.148C549.641 555.273 550.531 554.344 551.531 554.359ZM550.852 559.562C550.117 559.594 549.789 560.211 549.867 561.414C549.883 561.586 549.922 561.68 549.984 561.695C550.641 561.883 551.297 561.93 551.953 561.836C552.609 561.742 553.008 561.547 553.148 561.25C552.211 560.094 551.445 559.531 550.852 559.562ZM562.289 541.844C562.68 540.266 563.094 540.227 563.531 541.727C563.531 541.727 564.594 545.656 566.719 553.516C569.781 564.109 570.828 570.828 569.859 573.672C569.734 574.031 569.578 574.125 569.391 573.953C569.219 573.766 569.109 573.5 569.062 573.156C568.641 570.469 567.906 567.445 566.859 564.086C566.812 563.945 565.938 560.898 564.234 554.945L561.656 546.25C561.484 545.656 561.461 545.117 561.586 544.633L562.289 541.844Z" fill="#BDBDBD"/>
<path d="M312.609 644.418C312.609 647.098 311.738 649.281 309.996 650.969C308.262 652.648 306.051 653.487 303.363 653.487H297.223V652.926C297.918 652.918 298.387 652.781 298.629 652.516C298.879 652.25 299.004 651.766 299.004 651.062V640.914C299.004 640.211 298.879 639.73 298.629 639.473C298.387 639.215 297.918 639.078 297.223 639.062V638.5H306.434C310.551 638.5 312.609 640.473 312.609 644.418ZM310.406 645.94C310.406 641.331 308.461 639.026 304.57 639.026C303.203 639.026 302.07 639.328 301.172 639.93V651.637C302.422 652.363 303.641 652.727 304.828 652.727C306.625 652.727 308.031 652.023 309.047 650.617C309.953 649.367 310.406 647.808 310.406 645.94ZM323.52 650.547C321.777 652.734 320.078 653.828 318.422 653.828C317.156 653.828 316.09 653.277 315.223 652.176C314.41 651.16 314.004 650.003 314.004 648.706C314.004 647.159 314.496 645.753 315.48 644.487C316.543 643.128 317.828 642.448 319.336 642.448C320.492 642.448 321.426 642.871 322.137 643.715C322.785 644.504 323.129 645.492 323.168 646.68H315.609C315.594 646.984 315.586 647.207 315.586 647.348C315.586 648.598 315.902 649.688 316.535 650.617C317.254 651.672 318.211 652.198 319.406 652.198C320.75 652.198 322.121 651.391 323.52 649.773V650.547ZM321.246 646.094C321.16 645.289 320.91 644.621 320.496 644.09C320.012 643.488 319.387 643.188 318.621 643.188C317.863 643.188 317.207 643.488 316.652 644.09C316.145 644.645 315.832 645.312 315.715 646.094H321.246ZM335.602 643.315C334.711 643.409 333.871 644.391 333.082 646.258L329.789 654.026H329.168L326.18 645.59C325.648 644.082 324.969 643.323 324.141 643.315V642.754H327.914V643.315C327.617 643.315 327.469 643.456 327.469 643.737C327.469 643.894 327.508 644.082 327.586 644.301L330.082 651.331L331.559 647.664C332.051 646.438 332.297 645.453 332.297 644.711C332.297 643.797 331.73 643.331 330.598 643.315V642.754H335.602V643.315ZM345.281 649.703H336.727V648.729H345.281V649.703ZM358.758 648.215C358.758 649.691 358.117 650.957 356.836 652.012C355.625 652.996 354.266 653.487 352.758 653.487H347.262V652.926C347.957 652.918 348.426 652.781 348.668 652.516C348.918 652.25 349.043 651.766 349.043 651.062V640.914C349.043 640.211 348.918 639.73 348.668 639.473C348.426 639.215 347.957 639.078 347.262 639.062V638.5H354.352C355.5 638.5 356.359 638.656 356.93 638.969C357.688 639.383 358.066 640.109 358.066 641.148C358.066 642.758 356.961 644.215 354.75 645.52C355.992 645.535 356.906 645.684 357.492 645.965C358.336 646.379 358.758 647.129 358.758 648.215ZM355.969 642.719C355.969 641.758 355.73 640.93 355.254 640.234C354.715 639.445 353.984 639.051 353.062 639.051C352.289 639.051 351.672 639.237 351.211 639.612V645.062H353.496C355.145 645.062 355.969 644.281 355.969 642.719ZM356.508 649.645C356.508 648.418 356.133 647.438 355.383 646.703C354.633 645.969 353.641 645.602 352.406 645.602H351.211V651.776C352.016 652.409 352.855 652.727 353.73 652.727C354.605 652.727 355.297 652.425 355.805 651.823C356.273 651.269 356.508 650.543 356.508 649.645ZM370.816 647.534C370.816 649.206 370.25 650.664 369.117 651.906C367.953 653.188 366.543 653.828 364.887 653.828C363.395 653.828 362.211 653.348 361.336 652.387C360.5 651.465 360.082 650.25 360.082 648.742C360.082 647.094 360.641 645.645 361.758 644.395C362.922 643.098 364.316 642.448 365.941 642.448C367.449 642.448 368.645 642.922 369.527 643.867C370.387 644.797 370.816 646.019 370.816 647.534ZM369.223 648.836C369.223 647.898 369.016 646.992 368.602 646.117C368.172 645.203 367.582 644.492 366.832 643.984C366.207 643.57 365.578 643.362 364.945 643.362C363.859 643.362 363.023 643.769 362.438 644.581C361.922 645.3 361.664 646.223 361.664 647.348C361.664 648.668 362.066 649.875 362.871 650.969C363.746 652.172 364.82 652.773 366.094 652.773C367.086 652.773 367.871 652.352 368.449 651.508C368.965 650.758 369.223 649.867 369.223 648.836ZM384.105 652.573L380.871 653.862H380.297V649.973C379.445 651.129 378.754 651.956 378.223 652.456C377.262 653.37 376.32 653.828 375.398 653.828C374.109 653.828 373.465 652.914 373.465 651.086V644.676C373.465 643.996 373.102 643.656 372.375 643.656C372.219 643.656 372 643.68 371.719 643.727V643.176L375.738 642.461V642.918C375.41 643.012 375.246 643.281 375.246 643.727V650.979C375.246 652.003 375.633 652.516 376.406 652.516C377.594 652.516 378.598 651.641 379.418 649.891C380.09 648.445 380.426 647.055 380.426 645.719C380.426 644.328 380.008 643.633 379.172 643.633C379.023 643.633 378.801 643.664 378.504 643.727V643.176L382.582 642.461V642.918C382.238 642.973 382.066 643.242 382.066 643.727V651.262C382.066 651.988 382.336 652.352 382.875 652.352C383.195 652.352 383.605 652.234 384.105 652V652.573ZM393.844 646.234H393.012C393.004 644.82 392.594 644.112 391.781 644.112C390.773 644.112 389.973 644.98 389.379 646.715C388.918 648.035 388.688 649.316 388.688 650.559C388.688 651.535 388.883 652.184 389.273 652.504C389.625 652.785 390.305 652.926 391.312 652.926V653.487H385.219V652.926C385.875 652.91 386.34 652.766 386.613 652.492C386.887 652.219 387.023 651.754 387.023 651.098V645.016C387.023 644.328 386.77 643.984 386.262 643.984C386.051 643.984 385.703 644.07 385.219 644.242V643.68L388.301 642.426H388.816V646.234C390.293 643.711 391.66 642.448 392.918 642.448C393.176 642.448 393.484 642.508 393.844 642.625V646.234ZM406.898 653.487H402.809V652.926C403.152 652.91 403.324 652.699 403.324 652.293V645.297C403.324 644.281 402.91 643.773 402.082 643.773C400.902 643.773 399.914 644.648 399.117 646.398C398.461 647.836 398.133 649.223 398.133 650.559C398.133 652.137 398.613 652.926 399.574 652.926H400.043V653.487H394.723V652.926C395.371 652.91 395.828 652.766 396.094 652.492C396.359 652.211 396.492 651.746 396.492 651.098V639.531C396.492 639.07 396.234 638.84 395.719 638.84C395.43 638.84 395.098 638.914 394.723 639.062V638.5L398.754 636.895V637.398C398.434 637.523 398.273 637.805 398.273 638.242V646.305C400.102 643.711 401.742 642.414 403.195 642.414C404.469 642.414 405.105 643.269 405.105 644.979V651.098C405.105 651.762 405.238 652.23 405.504 652.504C405.77 652.77 406.234 652.91 406.898 652.926V653.487ZM417.434 650.547C415.691 652.734 413.992 653.828 412.336 653.828C411.07 653.828 410.004 653.277 409.137 652.176C408.324 651.16 407.918 650.003 407.918 648.706C407.918 647.159 408.41 645.753 409.395 644.487C410.457 643.128 411.742 642.448 413.25 642.448C414.406 642.448 415.34 642.871 416.051 643.715C416.699 644.504 417.043 645.492 417.082 646.68H409.523C409.508 646.984 409.5 647.207 409.5 647.348C409.5 648.598 409.816 649.688 410.449 650.617C411.168 651.672 412.125 652.198 413.32 652.198C414.664 652.198 416.035 651.391 417.434 649.773V650.547ZM415.16 646.094C415.074 645.289 414.824 644.621 414.41 644.09C413.926 643.488 413.301 643.188 412.535 643.188C411.777 643.188 411.121 643.488 410.566 644.09C410.059 644.645 409.746 645.312 409.629 646.094H415.16ZM427.934 650.547C426.191 652.734 424.492 653.828 422.836 653.828C421.57 653.828 420.504 653.277 419.637 652.176C418.824 651.16 418.418 650.003 418.418 648.706C418.418 647.159 418.91 645.753 419.895 644.487C420.957 643.128 422.242 642.448 423.75 642.448C424.906 642.448 425.84 642.871 426.551 643.715C427.199 644.504 427.543 645.492 427.582 646.68H420.023C420.008 646.984 420 647.207 420 647.348C420 648.598 420.316 649.688 420.949 650.617C421.668 651.672 422.625 652.198 423.82 652.198C425.164 652.198 426.535 651.391 427.934 649.773V650.547ZM425.66 646.094C425.574 645.289 425.324 644.621 424.91 644.09C424.426 643.488 423.801 643.188 423.035 643.188C422.277 643.188 421.621 643.488 421.066 644.09C420.559 644.645 420.246 645.312 420.129 646.094H425.66ZM447.234 653.487H443.156V652.926C443.492 652.918 443.66 652.734 443.66 652.375V645.659C443.66 644.401 443.246 643.773 442.418 643.773C441.293 643.773 440.375 644.629 439.664 646.34C439.109 647.691 438.832 649.023 438.832 650.336C438.832 651.188 438.941 651.801 439.16 652.176C439.449 652.66 439.98 652.91 440.754 652.926V653.487H436.711V652.926C437.039 652.91 437.203 652.766 437.203 652.492V645.284C437.203 644.886 437.109 644.55 436.922 644.276C436.703 643.956 436.406 643.797 436.031 643.797C434.875 643.797 433.945 644.651 433.242 646.362C432.695 647.698 432.422 649.039 432.422 650.383C432.422 651.227 432.527 651.831 432.738 652.198C433.027 652.683 433.555 652.926 434.32 652.926V653.487H429.012V652.926C429.66 652.91 430.113 652.766 430.371 652.492C430.637 652.211 430.77 651.746 430.77 651.098V644.956C430.77 644.308 430.516 643.984 430.008 643.984C429.758 643.984 429.426 644.07 429.012 644.242V643.656L432 642.461H432.551V646.023C433.395 644.898 434.031 644.129 434.461 643.715C435.352 642.863 436.223 642.438 437.074 642.438C438.348 642.438 438.984 643.348 438.984 645.168C438.984 645.371 438.98 645.617 438.973 645.906C439.855 644.797 440.504 644.051 440.918 643.668C441.816 642.84 442.684 642.426 443.52 642.426C444.113 642.426 444.586 642.633 444.938 643.047C445.273 643.43 445.441 643.925 445.441 644.534V651.098C445.441 651.754 445.574 652.219 445.84 652.492C446.113 652.766 446.578 652.91 447.234 652.926V653.487ZM336.785 687.629C334.309 689.762 332.051 690.828 330.012 690.828C328.082 690.828 326.504 690.109 325.277 688.672C324.121 687.305 323.543 685.641 323.543 683.68C323.543 680.586 324.863 678.164 327.504 676.414C328.762 675.578 330.277 675.159 332.051 675.159C333.598 675.159 335.059 675.402 336.434 675.887V679.426H335.602C335.5 678.293 334.984 677.406 334.055 676.766C333.219 676.188 332.203 675.898 331.008 675.898C329.281 675.898 327.918 676.555 326.918 677.867C326.012 679.062 325.559 680.55 325.559 682.331C325.559 684.198 326.066 685.773 327.082 687.055C328.176 688.438 329.633 689.129 331.453 689.129C333.18 689.129 334.957 688.391 336.785 686.914V687.629ZM348.645 684.534C348.645 686.206 348.078 687.664 346.945 688.906C345.781 690.188 344.371 690.828 342.715 690.828C341.223 690.828 340.039 690.348 339.164 689.387C338.328 688.465 337.91 687.25 337.91 685.742C337.91 684.094 338.469 682.645 339.586 681.395C340.75 680.098 342.145 679.448 343.77 679.448C345.277 679.448 346.473 679.922 347.355 680.867C348.215 681.797 348.645 683.019 348.645 684.534ZM347.051 685.836C347.051 684.898 346.844 683.992 346.43 683.117C346 682.203 345.41 681.492 344.66 680.984C344.035 680.57 343.406 680.362 342.773 680.362C341.688 680.362 340.852 680.769 340.266 681.581C339.75 682.3 339.492 683.223 339.492 684.348C339.492 685.668 339.895 686.875 340.699 687.969C341.574 689.172 342.648 689.773 343.922 689.773C344.914 689.773 345.699 689.352 346.277 688.508C346.793 687.758 347.051 686.867 347.051 685.836ZM361.406 683.773C361.406 685.484 360.852 687.058 359.742 688.495C358.547 690.05 357.117 690.828 355.453 690.828C354.758 690.828 353.988 690.644 353.145 690.276V693.043C353.145 693.707 353.281 694.18 353.555 694.461C353.828 694.742 354.297 694.887 354.961 694.895V695.469H349.605V694.895C350.262 694.887 350.723 694.737 350.988 694.448C351.254 694.167 351.387 693.699 351.387 693.043V681.84C351.387 681.254 351.156 680.961 350.695 680.961C350.531 680.961 350.168 681.062 349.605 681.266V680.68L352.617 679.448H353.145V683.258C353.996 682.086 354.676 681.261 355.184 680.784C356.129 679.878 357.059 679.426 357.973 679.426C359.059 679.426 359.922 679.894 360.562 680.831C361.125 681.659 361.406 682.641 361.406 683.773ZM359.637 684.84C359.637 683.832 359.465 682.961 359.121 682.227C358.668 681.258 357.996 680.773 357.105 680.773C355.863 680.773 354.836 681.59 354.023 683.223C353.352 684.574 353.016 685.934 353.016 687.301C353.016 687.668 353.059 688.159 353.145 688.776C354.238 689.667 355.207 690.112 356.051 690.112C357.223 690.112 358.145 689.496 358.816 688.262C359.363 687.246 359.637 686.105 359.637 684.84ZM373.371 680.315C372.871 680.347 372.488 680.508 372.223 680.797C371.879 681.164 371.531 681.808 371.18 682.729L367.16 693.159C366.543 694.761 365.379 695.636 363.668 695.784L361.77 693.547L362.402 693.043C363.02 693.809 363.707 694.19 364.465 694.19C365.285 694.19 365.906 693.772 366.328 692.938C366.461 692.664 366.723 692.031 367.113 691.039L367.301 690.559L364.102 682.602C363.812 681.875 363.559 681.367 363.34 681.078C362.957 680.578 362.48 680.323 361.91 680.315V679.754H365.707V680.315C365.41 680.331 365.262 680.426 365.262 680.598C365.262 680.676 365.285 680.773 365.332 680.891L368.238 688.12L369.387 685.062C369.902 683.688 370.16 682.547 370.16 681.641C370.16 680.758 369.602 680.315 368.484 680.315V679.754H373.371V680.315ZM382.406 683.234H381.574C381.566 681.82 381.156 681.112 380.344 681.112C379.336 681.112 378.535 681.98 377.941 683.715C377.48 685.035 377.25 686.316 377.25 687.559C377.25 688.535 377.445 689.184 377.836 689.504C378.188 689.785 378.867 689.926 379.875 689.926V690.487H373.781V689.926C374.438 689.91 374.902 689.766 375.176 689.492C375.449 689.219 375.586 688.754 375.586 688.098V682.016C375.586 681.328 375.332 680.984 374.824 680.984C374.613 680.984 374.266 681.07 373.781 681.242V680.68L376.863 679.426H377.379V683.234C378.855 680.711 380.223 679.448 381.48 679.448C381.738 679.448 382.047 679.508 382.406 679.625V683.234ZM387.199 675.676C387.199 675.988 387.09 676.254 386.871 676.473C386.652 676.684 386.387 676.789 386.074 676.789C385.762 676.789 385.496 676.684 385.277 676.473C385.066 676.254 384.961 675.988 384.961 675.676C384.961 675.371 385.066 675.109 385.277 674.891C385.488 674.664 385.746 674.551 386.051 674.551C386.371 674.551 386.641 674.66 386.859 674.879C387.086 675.09 387.199 675.355 387.199 675.676ZM388.758 690.487H383.391V689.926C384.047 689.91 384.508 689.766 384.773 689.492C385.047 689.219 385.184 688.754 385.184 688.098V681.688C385.184 681.194 384.902 680.948 384.34 680.948C384.137 680.948 383.914 681 383.672 681.102C383.539 681.156 383.445 681.19 383.391 681.206V680.609L386.391 679.426H386.965V688.098C386.965 688.754 387.098 689.219 387.363 689.492C387.637 689.766 388.102 689.91 388.758 689.926V690.487ZM400.992 691.612C400.992 692.979 400.066 694.07 398.215 694.883C396.746 695.523 395.23 695.844 393.668 695.844C392.551 695.844 391.543 695.667 390.645 695.315C389.426 694.839 388.816 694.129 388.816 693.184C388.816 692.223 389.57 691.391 391.078 690.688C392.039 690.241 393.199 689.886 394.559 689.62C393.988 689.206 393.703 688.773 393.703 688.32C393.703 687.781 394.23 687.098 395.285 686.27C395.207 686.277 395.066 686.297 394.863 686.328C394.262 686.422 393.84 686.469 393.598 686.469C392.691 686.469 391.926 686.234 391.301 685.766C390.613 685.242 390.27 684.543 390.27 683.668C390.27 682.496 390.848 681.484 392.004 680.633C393.066 679.844 394.203 679.448 395.414 679.448C395.922 679.448 396.645 679.641 397.582 680.023C398.652 680.461 399.492 680.68 400.102 680.68H400.934V681.229H398.543C398.73 681.636 398.824 682.008 398.824 682.344C398.824 683.008 398.59 683.648 398.121 684.266C397.84 684.656 397.348 685.152 396.645 685.754C395.715 686.559 395.25 687.125 395.25 687.453C395.25 687.906 396 688.378 397.5 688.87C398.562 689.222 399.305 689.523 399.727 689.773C400.57 690.273 400.992 690.886 400.992 691.612ZM396.984 682.987C396.984 682.237 396.789 681.594 396.398 681.055C395.961 680.453 395.379 680.151 394.652 680.151C393.871 680.151 393.25 680.441 392.789 681.02C392.367 681.543 392.156 682.207 392.156 683.012C392.156 683.777 392.359 684.43 392.766 684.969C393.211 685.562 393.805 685.859 394.547 685.859C395.289 685.859 395.891 685.558 396.352 684.956C396.773 684.409 396.984 683.753 396.984 682.987ZM399.34 692.281C399.34 691.789 398.992 691.37 398.297 691.026C398.195 690.972 397.641 690.766 396.633 690.406L395.285 689.926C392.074 690.738 390.469 691.758 390.469 692.984C390.469 693.758 390.973 694.336 391.98 694.719C392.707 694.992 393.523 695.129 394.43 695.129C395.547 695.129 396.57 694.93 397.5 694.531C398.727 694.008 399.34 693.258 399.34 692.281ZM413.977 690.487H409.887V689.926C410.23 689.91 410.402 689.699 410.402 689.293V682.297C410.402 681.281 409.988 680.773 409.16 680.773C407.98 680.773 406.992 681.648 406.195 683.398C405.539 684.836 405.211 686.223 405.211 687.559C405.211 689.137 405.691 689.926 406.652 689.926H407.121V690.487H401.801V689.926C402.449 689.91 402.906 689.766 403.172 689.492C403.438 689.211 403.57 688.746 403.57 688.098V676.531C403.57 676.07 403.312 675.84 402.797 675.84C402.508 675.84 402.176 675.914 401.801 676.062V675.5L405.832 673.895V674.398C405.512 674.523 405.352 674.805 405.352 675.242V683.305C407.18 680.711 408.82 679.414 410.273 679.414C411.547 679.414 412.184 680.269 412.184 681.979V688.098C412.184 688.762 412.316 689.23 412.582 689.504C412.848 689.77 413.312 689.91 413.977 689.926V690.487ZM421.266 681.184H418.395V688.706C418.395 689.198 418.59 689.445 418.98 689.445C419.363 689.445 419.934 689.133 420.691 688.508C420.777 688.438 420.844 688.386 420.891 688.354V689.034C419.562 690.229 418.504 690.828 417.715 690.828C416.98 690.828 416.613 690.262 416.613 689.129V681.184H414.82V680.656C415.508 680.656 415.996 680.519 416.285 680.245C416.574 679.964 416.719 679.484 416.719 678.805V677.034L419.121 676.062V676.672C418.629 676.789 418.383 677.344 418.383 678.336C418.383 679.406 418.641 680.094 419.156 680.398C419.438 680.57 419.816 680.656 420.293 680.656H421.266V681.184ZM360.586 723.891L359.742 728.039H359.191V727.898C359.191 727.625 359.051 727.487 358.77 727.487H349.617V726.926L353.039 722.801C355.375 719.98 356.789 717.961 357.281 716.742C357.57 716.023 357.715 715.421 357.715 714.938C357.715 714.32 357.516 713.805 357.117 713.391C356.727 712.969 356.227 712.758 355.617 712.758C354.555 712.758 353.656 713.297 352.922 714.375C352.297 715.289 351.938 716.32 351.844 717.469H351.035V713.906C352.91 712.742 354.668 712.159 356.309 712.159C357.309 712.159 358.148 712.394 358.828 712.862C359.602 713.401 359.988 714.148 359.988 715.102C359.988 716.094 359.566 717.136 358.723 718.229C358.371 718.675 357.574 719.516 356.332 720.75L351.352 725.672H357.961C359.133 725.672 359.82 725.078 360.023 723.891H360.586ZM374.086 718.745C374.086 720.8 373.531 722.753 372.422 724.604C371.133 726.753 369.52 727.828 367.582 727.828C366.66 727.828 365.797 727.523 364.992 726.914C364.242 726.344 363.676 725.617 363.293 724.734C362.863 723.766 362.648 722.602 362.648 721.242C362.648 719.227 363.18 717.277 364.242 715.395C365.492 713.184 367.059 712.078 368.941 712.078C370.598 712.078 371.902 712.805 372.855 714.258C373.676 715.508 374.086 717.003 374.086 718.745ZM372.375 720.562C372.375 717.633 371.598 715.539 370.043 714.281C369.277 713.672 368.562 713.367 367.898 713.367C366.57 713.367 365.59 714.094 364.957 715.547C364.496 716.609 364.266 717.906 364.266 719.438C364.266 721.023 364.625 722.511 365.344 723.901C366.219 725.604 367.379 726.456 368.824 726.456C370.121 726.456 371.078 725.754 371.695 724.348C372.148 723.309 372.375 722.047 372.375 720.562ZM387.117 723.891L386.273 728.039H385.723V727.898C385.723 727.625 385.582 727.487 385.301 727.487H376.148V726.926L379.57 722.801C381.906 719.98 383.32 717.961 383.812 716.742C384.102 716.023 384.246 715.421 384.246 714.938C384.246 714.32 384.047 713.805 383.648 713.391C383.258 712.969 382.758 712.758 382.148 712.758C381.086 712.758 380.188 713.297 379.453 714.375C378.828 715.289 378.469 716.32 378.375 717.469H377.566V713.906C379.441 712.742 381.199 712.159 382.84 712.159C383.84 712.159 384.68 712.394 385.359 712.862C386.133 713.401 386.52 714.148 386.52 715.102C386.52 716.094 386.098 717.136 385.254 718.229C384.902 718.675 384.105 719.516 382.863 720.75L377.883 725.672H384.492C385.664 725.672 386.352 725.078 386.555 723.891H387.117ZM400.617 718.745C400.617 720.8 400.062 722.753 398.953 724.604C397.664 726.753 396.051 727.828 394.113 727.828C393.191 727.828 392.328 727.523 391.523 726.914C390.773 726.344 390.207 725.617 389.824 724.734C389.395 723.766 389.18 722.602 389.18 721.242C389.18 719.227 389.711 717.277 390.773 715.395C392.023 713.184 393.59 712.078 395.473 712.078C397.129 712.078 398.434 712.805 399.387 714.258C400.207 715.508 400.617 717.003 400.617 718.745ZM398.906 720.562C398.906 717.633 398.129 715.539 396.574 714.281C395.809 713.672 395.094 713.367 394.43 713.367C393.102 713.367 392.121 714.094 391.488 715.547C391.027 716.609 390.797 717.906 390.797 719.438C390.797 721.023 391.156 722.511 391.875 723.901C392.75 725.604 393.91 726.456 395.355 726.456C396.652 726.456 397.609 725.754 398.227 724.348C398.68 723.309 398.906 722.047 398.906 720.562Z" fill="#828282"/>
<path d="M465.97 256H456.875V259.181C444.213 262.291 442.393 275.195 441.678 280.126C441.339 282.458 440.65 287.02 439.796 292.608H281.427C275.16 292.608 274.459 299.037 275.277 302.594L293.856 392.647C294.671 396.204 298.101 399.108 301.464 399.108H440.317C443.66 399.108 446.386 402.093 446.386 405.764C446.386 409.435 443.66 412.42 440.317 412.42H288.757C287.149 412.42 285.607 413.121 284.47 414.37C283.333 415.618 282.694 417.311 282.694 419.076C282.694 420.842 283.333 422.535 284.47 423.783C285.607 425.031 287.149 425.733 288.757 425.733H296.614C292.82 428.032 289.657 431.407 287.456 435.504C285.254 439.602 284.093 444.273 284.094 449.031H290.157C290.157 460.054 298.305 469 308.344 469C318.384 469 326.532 460.054 326.532 449.031H332.595C332.595 444.273 331.434 439.602 329.231 435.504C327.029 431.406 323.866 428.032 320.072 425.733H405.736C401.942 428.032 398.779 431.406 396.577 435.504C394.374 439.602 393.213 444.273 393.213 449.031H399.276C399.366 454.263 401.322 459.247 404.723 462.912C408.125 466.577 412.701 468.631 417.467 468.631C422.233 468.631 426.808 466.577 430.21 462.912C433.612 459.247 435.568 454.263 435.658 449.031H441.72C441.721 444.274 440.559 439.603 438.358 435.505C436.156 431.408 432.994 428.033 429.201 425.733H440.323C445.146 425.73 449.771 423.625 453.181 419.881C456.591 416.137 458.508 411.059 458.511 405.764C458.511 403.141 458.04 400.544 457.125 398.121C456.21 395.698 454.87 393.497 453.181 391.642C451.491 389.788 449.486 388.317 447.279 387.314C445.071 386.311 442.706 385.795 440.317 385.795H438.063L445.817 332.865C447.977 318.885 452.633 288.685 453.726 281.173C454.275 277.378 454.809 274.712 456.875 273.217V275.965H465.97C466.773 275.962 467.541 275.612 468.109 274.989C468.676 274.367 468.997 273.523 469 272.642V259.33C468.998 258.448 468.679 257.603 468.111 256.979C467.543 256.355 466.774 256.003 465.97 256V256ZM308.344 459.017C305.933 459.015 303.621 457.962 301.916 456.089C300.211 454.217 299.252 451.679 299.249 449.031H317.437C317.434 451.678 316.475 454.216 314.771 456.088C313.066 457.96 310.755 459.014 308.344 459.017V459.017ZM417.47 459.017C415.058 459.016 412.745 457.963 411.039 456.091C409.333 454.218 408.374 451.679 408.371 449.031H426.565C426.561 451.678 425.602 454.216 423.897 456.087C422.192 457.959 419.881 459.013 417.47 459.017V459.017ZM410.011 309.229C410.117 308.326 410.516 307.496 411.133 306.889C411.75 306.282 412.545 305.938 413.373 305.92H432.57C434.238 305.92 435.399 307.397 435.137 309.211L433.236 322.598C432.984 324.408 431.403 325.889 429.731 325.889H411.42C411.035 325.9 410.652 325.819 410.297 325.653C409.943 325.486 409.625 325.236 409.367 324.922C409.109 324.608 408.915 324.235 408.8 323.831C408.685 323.427 408.652 323 408.701 322.58L410.011 309.229V309.229ZM406.748 342.51C406.857 341.609 407.256 340.78 407.872 340.173C408.489 339.566 409.283 339.221 410.111 339.201H427.839C429.511 339.201 430.669 340.678 430.416 342.492L428.984 352.553C428.729 354.363 427.151 355.844 425.479 355.844H408.481C408.096 355.854 407.713 355.772 407.359 355.605C407.005 355.438 406.689 355.188 406.43 354.874C406.172 354.56 405.979 354.189 405.863 353.785C405.748 353.381 405.714 352.955 405.762 352.535L406.748 342.51V342.51ZM290.732 322.658L287.661 309.151C287.26 307.368 288.301 305.92 289.972 305.92H312.797C314.472 305.92 315.982 307.408 316.159 309.229L317.466 322.584C317.514 323.003 317.48 323.429 317.364 323.833C317.249 324.236 317.056 324.608 316.798 324.922C316.541 325.236 316.224 325.485 315.871 325.653C315.517 325.82 315.135 325.902 314.75 325.892H294.506C292.837 325.892 291.136 324.433 290.732 322.658V322.658ZM301.309 355.844C299.64 355.844 297.939 354.388 297.538 352.613L295.223 342.435C294.819 340.653 295.854 339.205 297.526 339.205H316.049C317.721 339.205 319.234 340.692 319.412 342.514L320.395 352.539C320.444 352.958 320.41 353.384 320.295 353.788C320.18 354.192 319.987 354.564 319.729 354.878C319.471 355.192 319.154 355.441 318.801 355.609C318.447 355.776 318.064 355.857 317.679 355.847H301.309V355.844ZM320.608 385.799H308.112C306.433 385.799 304.742 384.343 304.338 382.568L302.023 372.39C301.622 370.608 302.657 369.16 304.332 369.16H318.979C320.651 369.16 322.164 370.647 322.348 372.468L323.324 382.494C323.374 382.913 323.339 383.339 323.224 383.743C323.11 384.146 322.916 384.518 322.658 384.832C322.4 385.146 322.084 385.394 321.73 385.561C321.376 385.728 320.993 385.809 320.608 385.799V385.799ZM357.766 382.469C357.763 383.352 357.441 384.198 356.872 384.822C356.302 385.446 355.531 385.797 354.727 385.799H338.912C338.085 385.78 337.29 385.436 336.674 384.829C336.057 384.221 335.66 383.392 335.553 382.49L334.57 372.465C334.52 372.045 334.553 371.619 334.668 371.215C334.782 370.811 334.975 370.439 335.232 370.125C335.49 369.81 335.807 369.561 336.161 369.394C336.515 369.226 336.898 369.145 337.283 369.156H354.727C355.532 369.156 356.304 369.507 356.874 370.131C357.443 370.755 357.764 371.602 357.766 372.486V382.469V382.469ZM357.766 352.517C357.763 353.401 357.441 354.246 356.872 354.87C356.302 355.494 355.531 355.845 354.727 355.847H335.98C334.311 355.847 332.805 354.36 332.617 352.539L331.641 342.514C331.591 342.094 331.625 341.668 331.739 341.264C331.854 340.861 332.047 340.489 332.304 340.174C332.562 339.86 332.879 339.611 333.232 339.443C333.586 339.276 333.968 339.195 334.353 339.205H354.727C355.532 339.205 356.304 339.555 356.874 340.18C357.443 340.804 357.764 341.651 357.766 342.535V352.517V352.517ZM357.766 322.562C357.763 323.446 357.441 324.292 356.872 324.915C356.302 325.539 355.531 325.891 354.727 325.892H333.057C332.228 325.874 331.433 325.531 330.816 324.923C330.199 324.316 329.801 323.486 329.694 322.584L328.388 309.229C328.339 308.809 328.373 308.383 328.488 307.979C328.603 307.575 328.796 307.204 329.054 306.89C329.312 306.575 329.629 306.326 329.982 306.159C330.336 305.991 330.719 305.91 331.104 305.92H354.73C355.535 305.92 356.307 306.271 356.877 306.895C357.447 307.519 357.768 308.366 357.769 309.25V322.562H357.766ZM390.614 382.49C390.506 383.392 390.108 384.222 389.491 384.829C388.874 385.436 388.079 385.78 387.251 385.799H372.96C372.156 385.797 371.385 385.445 370.816 384.821C370.247 384.198 369.926 383.352 369.924 382.469V372.483C369.925 371.599 370.246 370.753 370.815 370.129C371.384 369.505 372.155 369.154 372.96 369.153H388.881C390.549 369.153 391.778 370.64 391.597 372.461L390.614 382.49ZM393.543 352.535C393.436 353.437 393.038 354.267 392.421 354.874C391.804 355.481 391.009 355.825 390.181 355.844H372.96C372.156 355.842 371.385 355.491 370.816 354.867C370.247 354.243 369.926 353.397 369.924 352.514V342.528C369.925 341.645 370.246 340.798 370.815 340.174C371.384 339.55 372.155 339.199 372.96 339.198H391.81C393.482 339.198 394.707 340.685 394.523 342.506L393.543 352.535ZM396.473 322.584C396.365 323.486 395.967 324.316 395.35 324.923C394.733 325.53 393.938 325.874 393.11 325.892H372.96C372.156 325.891 371.385 325.539 370.816 324.915C370.247 324.291 369.926 323.445 369.924 322.562V309.25C369.925 308.367 370.246 307.52 370.815 306.896C371.384 306.272 372.155 305.921 372.96 305.92H395.066C396.738 305.92 397.963 307.408 397.785 309.229L396.473 322.584V322.584ZM419.856 385.799V385.774L419.83 385.799H405.552C405.458 385.799 405.377 385.749 405.284 385.735C405.267 385.614 405.267 385.493 405.248 385.366L405.106 385.692C405.145 385.704 405.185 385.713 405.225 385.721C403.735 385.532 402.668 384.18 402.839 382.49L403.816 372.465C403.924 371.563 404.323 370.735 404.94 370.128C405.556 369.521 406.35 369.176 407.178 369.156H423.591C425.262 369.156 426.413 370.633 426.161 372.447L424.729 382.508C424.48 384.318 422.902 385.799 421.23 385.799H419.856" fill="#F2C94C"/>
</svg>
