<svg width="640" height="156" viewBox="0 0 640 156" fill="none" xmlns="http://www.w3.org/2000/svg">
<rect width="640" height="156" rx="50" fill="#E0E0E0"/>
<path fill-rule="evenodd" clip-rule="evenodd" d="M124.667 121C124.667 121 133 121 133 112.667C133 104.333 124.667 79.3333 83 79.3333C41.3333 79.3333 33 104.333 33 112.667C33 121 41.3333 121 41.3333 121H124.667ZM41.375 113.133V113.117V113.133ZM41.5167 112.667H124.483C124.522 112.662 124.561 112.657 124.6 112.65L124.667 112.633C124.658 110.583 123.383 104.417 117.733 98.7667C112.3 93.3333 102.075 87.6667 83 87.6667C63.9167 87.6667 53.7 93.3333 48.2667 98.7667C42.6167 104.417 41.35 110.583 41.3333 112.633C41.3943 112.645 41.4554 112.656 41.5167 112.667ZM124.633 113.133V113.117V113.133ZM83 62.6667C87.4203 62.6667 91.6595 60.9107 94.7851 57.7851C97.9107 54.6595 99.6667 50.4203 99.6667 46C99.6667 41.5797 97.9107 37.3405 94.7851 34.2149C91.6595 31.0893 87.4203 29.3333 83 29.3333C78.5797 29.3333 74.3405 31.0893 71.2149 34.2149C68.0893 37.3405 66.3333 41.5797 66.3333 46C66.3333 50.4203 68.0893 54.6595 71.2149 57.7851C74.3405 60.9107 78.5797 62.6667 83 62.6667ZM108 46C108 52.6304 105.366 58.9893 100.678 63.6777C95.9893 68.3661 89.6304 71 83 71C76.3696 71 70.0107 68.3661 65.3223 63.6777C60.6339 58.9893 58 52.6304 58 46C58 39.3696 60.6339 33.0107 65.3223 28.3223C70.0107 23.6339 76.3696 21 83 21C89.6304 21 95.9893 23.6339 100.678 28.3223C105.366 33.0107 108 39.3696 108 46Z" fill="#4F4F4F"/>
</svg>
