<svg width="200" height="200" viewBox="0 0 200 200" fill="none" xmlns="http://www.w3.org/2000/svg">
<circle cx="100" cy="100" r="100" fill="#D13C57"/>
<ellipse cx="99.9999" cy="119.195" rx="36.2069" ry="31.3893" fill="#731A2A"/>
<line x1="83" y1="117" x2="116.978" y2="117" stroke="#D13C57" stroke-width="4"/>
<path d="M100 132.923V99.9998" stroke="#D13C57" stroke-width="4"/>
<path d="M43.1792 84.0391C41.5504 84.0374 39.987 84.662 38.8296 85.7765C37.6723 86.8911 37.0148 88.4054 37.0004 89.9894C36.9938 90.5384 37.0755 91.0851 37.2427 91.6095L52.9018 145.31C53.6275 147.818 55.1786 150.026 57.3175 151.595C59.4564 153.165 62.0652 154.009 64.7445 154H135.256C137.94 154.002 140.553 153.156 142.7 151.588C144.847 150.021 146.412 147.817 147.159 145.31L162.818 91.6095L163 89.9894C162.986 88.4054 162.328 86.8911 161.171 85.7765C160.013 84.662 158.45 84.0374 156.821 84.0391H43.1792Z" stroke="#731A2A" stroke-width="4" stroke-linejoin="round"/>
<path d="M71.0342 84.705L100.111 47L129.188 84.705" stroke="#731A2A" stroke-width="4" stroke-linejoin="round"/>
</svg>
